<svg xmlns="http://www.w3.org/2000/svg" shape-rendering="geometricPrecision" text-rendering="geometricPrecision" image-rendering="optimizeQuality" fill-rule="evenodd" clip-rule="evenodd" viewBox="0 0 512 512"><g fill-rule="nonzero"><path fill="#285EFE" d="M145.227 0h221.545c39.962 0 76.279 16.334 102.59 42.638C495.665 68.942 512 105.262 512 145.223v221.549c0 39.966-16.335 76.279-42.638 102.59C443.051 495.665 406.734 512 366.772 512H145.227c-39.965 0-76.278-16.335-102.589-42.638C16.334 443.051 0 406.738 0 366.772V145.223c0-39.961 16.334-76.281 42.638-102.585C68.949 16.334 105.265 0 145.227 0z"/><path fill="#204DCE" d="M205.222 228.039c-4.074-.173-6.97-1.531-8.641-4.07-4.538-6.8 1.657-13.521 5.947-18.25 12.195-13.374 42.057-45.523 48.076-52.604 4.557-5.036 11.051-5.036 15.603 0 6.217 7.261 37.588 40.877 49.175 53.882 4.02 4.528 8.994 10.705 4.805 16.972-1.711 2.539-4.571 3.897-8.648 4.07h-24.744v61.155c0 6.53-5.356 11.893-11.89 11.893h-33.042c-6.534 0-11.89-5.352-11.89-11.893v-61.155h-24.751zm-74.784 62.033c-1.361-5.622.933-10.038 4.596-12.656a12.854 12.854 0 014.405-1.999 12.844 12.844 0 014.816-.245c4.462.641 8.528 3.519 9.901 9.159a348.675 348.675 0 012.366 10.485l1.87 9.213c2.441 12.325 4.253 20.059 8.806 23.909 4.812 4.074 13.928 5.482 31.397 5.482h122.694c16.122 0 24.539-1.545 28.962-5.543 4.265-3.854 5.935-11.396 8.1-22.969l.119-.598c1.135-6.108 2.381-12.71 4.139-19.979 1.372-5.636 5.435-8.518 9.901-9.159a12.845 12.845 0 014.815.245 12.83 12.83 0 014.405 1.999c3.664 2.607 5.958 7.023 4.596 12.653-1.603 6.627-2.834 13.2-3.962 19.237l-.064.349c-3.163 16.911-5.789 28.541-14.49 36.717-8.616 8.097-22.115 11.525-46.521 11.525H198.595c-25.523 0-39.552-3.072-48.574-11.064-9.249-8.194-12.052-20.084-15.621-38.118l-1.894-9.408a322.71 322.71 0 00-2.068-9.235z"/><path fill="#fff" d="M200.456 223.274c-4.073-.173-6.969-1.531-8.64-4.07-4.538-6.8 1.657-13.521 5.946-18.25 12.196-13.374 42.059-45.523 48.077-52.604 4.556-5.035 11.05-5.035 15.603 0 6.217 7.261 37.588 40.876 49.175 53.882 4.02 4.528 8.994 10.705 4.805 16.972-1.711 2.539-4.571 3.897-8.648 4.07H282.03v61.154c0 6.53-5.356 11.893-11.89 11.893h-33.043c-6.533 0-11.889-5.352-11.889-11.893v-61.154h-24.752zm-74.783 62.033c-1.361-5.622.933-10.038 4.596-12.656a12.827 12.827 0 014.405-1.999 12.837 12.837 0 014.815-.245c4.463.641 8.529 3.519 9.902 9.159a348.675 348.675 0 012.366 10.485l1.869 9.213c2.442 12.326 4.254 20.059 8.807 23.909 4.812 4.073 13.928 5.482 31.396 5.482h122.695c16.121 0 24.539-1.546 28.962-5.544 4.264-3.853 5.936-11.396 8.1-22.968l.119-.598c1.134-6.108 2.381-12.711 4.138-19.979 1.373-5.637 5.435-8.518 9.902-9.159a12.846 12.846 0 014.815.245 12.839 12.839 0 014.405 1.999c3.663 2.607 5.957 7.023 4.596 12.653-1.603 6.627-2.835 13.2-3.962 19.237l-.065.349c-3.162 16.91-5.788 28.541-14.49 36.717-8.615 8.096-22.114 11.525-46.52 11.525H193.829c-25.522 0-39.551-3.072-48.573-11.064-9.249-8.194-12.052-20.084-15.621-38.118l-1.895-9.408a317.904 317.904 0 00-2.067-9.235z"/></g></svg>